<?xml version="1.0" standalone="no"?>
<!DOCTYPE svg PUBLIC "-//W3C//DTD SVG 20010904//EN"
 "http://www.w3.org/TR/2001/REC-SVG-20010904/DTD/svg10.dtd">
<svg version="1.0" xmlns="http://www.w3.org/2000/svg"
 width="519.000000pt" height="519.000000pt" viewBox="0 0 519.000000 519.000000"
 preserveAspectRatio="xMidYMid meet">
<metadata>
Created by potrace 1.14, written by Peter Selinger 2001-2017
</metadata>
<g transform="translate(0.000000,519.000000) scale(0.100000,-0.100000)"
fill="#000000" stroke="none">
<path d="M2425 4929 c-27 -10 -131 -47 -230 -81 -134 -46 -195 -72 -237 -102
-51 -37 -289 -217 -329 -248 -8 -7 -47 -57 -86 -111 -39 -53 -89 -111 -112
-128 -58 -42 -244 -229 -316 -317 -107 -131 -120 -146 -195 -222 -41 -42 -92
-87 -113 -100 -66 -44 -170 -229 -196 -350 -33 -157 -35 -136 20 -216 l50 -72
-47 -81 c-56 -96 -124 -288 -124 -349 0 -23 11 -102 24 -175 13 -73 27 -154
31 -182 18 -141 37 -183 109 -245 61 -52 209 -200 237 -238 13 -18 59 -55 102
-83 85 -55 137 -101 137 -122 0 -22 33 -46 96 -72 31 -13 82 -45 113 -72 168
-146 368 -267 575 -349 26 -10 60 -32 75 -48 95 -106 165 -165 252 -212 89
-49 272 -124 302 -124 41 0 230 66 356 124 79 36 147 66 153 66 21 0 97 44
148 86 124 101 216 166 313 220 182 101 382 265 512 418 22 26 45 53 51 59 46
52 181 261 221 342 68 141 123 284 123 322 0 16 125 143 141 143 13 0 58 52
75 88 31 65 15 221 -37 355 -25 65 -86 184 -110 216 -37 47 -34 81 13 177 42
86 43 91 43 184 -1 88 -9 167 -22 215 -18 64 -98 233 -121 252 -15 13 -52 26
-91 33 -36 6 -112 27 -168 46 l-101 35 -116 114 c-64 63 -161 146 -216 185
-81 58 -110 86 -154 150 -67 95 -88 117 -180 185 -39 29 -92 77 -117 106 -38
45 -59 59 -120 83 -89 34 -246 75 -314 81 -27 3 -68 7 -90 10 -22 2 -76 7
-120 10 -44 3 -98 8 -120 10 -25 2 -59 -3 -90 -16z"/>
</g>
</svg>
